<svg width="24" height="24" viewBox="0 0 24 24" fill="none" xmlns="http://www.w3.org/2000/svg">
<path opacity="0.2" d="M12.375 20.2493H4.46875C4.27813 20.2493 4.09531 20.1735 3.96052 20.0387C3.82573 19.904 3.75 19.7211 3.75 19.5305V11.6242C3.75 10.4916 3.97309 9.37004 4.40654 8.32361C4.83998 7.27718 5.4753 6.32637 6.2762 5.52547C7.0771 4.72456 8.02791 4.08925 9.07435 3.6558C10.1208 3.22236 11.2423 2.99927 12.375 2.99927H12.375C13.5077 2.99927 14.6292 3.22236 15.6756 3.65581C16.7221 4.08925 17.6729 4.72457 18.4738 5.52547C19.2747 6.32638 19.91 7.27719 20.3435 8.32362C20.7769 9.37006 21 10.4916 21 11.6243V11.6243C21 13.9118 20.0913 16.1056 18.4738 17.7231C16.8563 19.3406 14.6625 20.2493 12.375 20.2493Z" fill="#061C3D"/>
<path d="M12.375 20.2493H4.46875C4.27813 20.2493 4.09531 20.1735 3.96052 20.0388C3.82573 19.904 3.75 19.7211 3.75 19.5305V11.6242C3.75 10.4916 3.97309 9.37004 4.40654 8.32361C4.83998 7.27718 5.4753 6.32637 6.2762 5.52547C7.0771 4.72456 8.02791 4.08925 9.07435 3.6558C10.1208 3.22236 11.2423 2.99927 12.375 2.99927H12.375C13.5077 2.99927 14.6292 3.22236 15.6756 3.65581C16.7221 4.08925 17.6729 4.72457 18.4738 5.52547C19.2747 6.32638 19.91 7.27719 20.3435 8.32362C20.7769 9.37006 21 10.4916 21 11.6243V11.6243C21 13.9118 20.0913 16.1056 18.4738 17.7231C16.8563 19.3406 14.6625 20.2493 12.375 20.2493Z" stroke="#061C3D" stroke-width="1.5" stroke-linecap="round" stroke-linejoin="round"/>
<path d="M12.375 13.125C12.9963 13.125 13.5 12.6213 13.5 12C13.5 11.3787 12.9963 10.875 12.375 10.875C11.7537 10.875 11.25 11.3787 11.25 12C11.25 12.6213 11.7537 13.125 12.375 13.125Z" fill="#061C3D"/>
<path d="M7.875 13.125C8.49632 13.125 9 12.6213 9 12C9 11.3787 8.49632 10.875 7.875 10.875C7.25368 10.875 6.75 11.3787 6.75 12C6.75 12.6213 7.25368 13.125 7.875 13.125Z" fill="#061C3D"/>
<path d="M16.875 13.125C17.4963 13.125 18 12.6213 18 12C18 11.3787 17.4963 10.875 16.875 10.875C16.2537 10.875 15.75 11.3787 15.75 12C15.75 12.6213 16.2537 13.125 16.875 13.125Z" fill="#061C3D"/>
</svg>
