<svg width="24" height="24" viewBox="0 0 24 24" fill="none" xmlns="http://www.w3.org/2000/svg">
<path opacity="0.2" d="M4.25895 16.5935C3.14076 14.7085 2.74916 12.4802 3.15768 10.3269C3.56621 8.17359 4.74675 6.2435 6.47764 4.89903C8.20853 3.55455 10.3707 2.8882 12.5581 3.02508C14.7455 3.16196 16.8078 4.09267 18.3575 5.64244C19.9073 7.1922 20.838 9.25442 20.9749 11.4418C21.1118 13.6293 20.4455 15.7914 19.101 17.5223C17.7565 19.2532 15.8264 20.4338 13.6732 20.8423C11.5199 21.2508 9.29149 20.8593 7.40649 19.7411L7.40651 19.741L4.29808 20.6291C4.16947 20.6658 4.03338 20.6675 3.90391 20.634C3.77443 20.6004 3.65628 20.5329 3.5617 20.4383C3.46713 20.3437 3.39956 20.2256 3.36601 20.0961C3.33246 19.9666 3.33415 19.8305 3.37089 19.7019L4.25901 16.5935L4.25895 16.5935Z" fill="#061C3D"/>
<path d="M4.25895 16.5935C3.14076 14.7085 2.74916 12.4802 3.15768 10.3269C3.56621 8.17359 4.74675 6.2435 6.47764 4.89903C8.20853 3.55455 10.3707 2.8882 12.5581 3.02508C14.7455 3.16196 16.8078 4.09267 18.3575 5.64244C19.9073 7.1922 20.838 9.25442 20.9749 11.4418C21.1118 13.6293 20.4455 15.7914 19.101 17.5223C17.7565 19.2532 15.8264 20.4338 13.6732 20.8423C11.5199 21.2508 9.29149 20.8593 7.40649 19.7411L7.40651 19.741L4.29808 20.6291C4.16947 20.6658 4.03338 20.6675 3.90391 20.634C3.77443 20.6004 3.65628 20.5329 3.5617 20.4383C3.46713 20.3437 3.39956 20.2256 3.36601 20.0961C3.33246 19.9666 3.33415 19.8305 3.37089 19.7019L4.25901 16.5935L4.25895 16.5935Z" stroke="none" stroke-width="1.5" stroke-linecap="round" stroke-linejoin="round"/>
<path d="M12 13.125C12.6213 13.125 13.125 12.6213 13.125 12C13.125 11.3787 12.6213 10.875 12 10.875C11.3787 10.875 10.875 11.3787 10.875 12C10.875 12.6213 11.3787 13.125 12 13.125Z" fill="#061C3D"/>
<path d="M7.5 13.125C8.12132 13.125 8.625 12.6213 8.625 12C8.625 11.3787 8.12132 10.875 7.5 10.875C6.87868 10.875 6.375 11.3787 6.375 12C6.375 12.6213 6.87868 13.125 7.5 13.125Z" fill="#061C3D"/>
<path d="M16.5 13.125C17.1213 13.125 17.625 12.6213 17.625 12C17.625 11.3787 17.1213 10.875 16.5 10.875C15.8787 10.875 15.375 11.3787 15.375 12C15.375 12.6213 15.8787 13.125 16.5 13.125Z" fill="#061C3D"/>
</svg>
