<svg width="24" height="24" viewBox="0 0 24 24" fill="none" xmlns="http://www.w3.org/2000/svg">
<path opacity="0.2" d="M19.4995 8.25H4.49951C4.0853 8.25 3.74951 8.58579 3.74951 9V19.5C3.74951 19.9142 4.0853 20.25 4.49951 20.25H19.4995C19.9137 20.25 20.2495 19.9142 20.2495 19.5V9C20.2495 8.58579 19.9137 8.25 19.4995 8.25Z" fill="#061C3D"/>
<path d="M19.4995 8.25H4.49951C4.0853 8.25 3.74951 8.58579 3.74951 9V19.5C3.74951 19.9142 4.0853 20.25 4.49951 20.25H19.4995C19.9137 20.25 20.2495 19.9142 20.2495 19.5V9C20.2495 8.58579 19.9137 8.25 19.4995 8.25Z" stroke="#061C3D" stroke-width="1.5" stroke-linecap="round" stroke-linejoin="round"/>
<path d="M8.62451 8.25V4.875C8.62451 3.97989 8.98009 3.12145 9.61303 2.48851C10.246 1.85558 11.1044 1.5 11.9995 1.5C12.8946 1.5 13.7531 1.85558 14.386 2.48851C15.0189 3.12145 15.3745 3.97989 15.3745 4.875V8.25" stroke="#061C3D" stroke-width="1.5" stroke-linecap="round" stroke-linejoin="round"/>
</svg>
