<svg width="24" height="24" viewBox="0 0 24 24" fill="none" xmlns="http://www.w3.org/2000/svg">
<path opacity="0.2" d="M14.5662 10.9922C12.8915 10.4177 11.0723 10.4218 9.40022 11.004C9.27867 11.0474 9.17052 11.1217 9.0864 11.2196C9.00229 11.3175 8.94512 11.4356 8.92051 11.5622L8.36755 14.3286C8.34309 14.4509 8.2885 14.5652 8.20872 14.6612C8.12894 14.7571 8.02648 14.8316 7.91064 14.8779L3.47509 16.6522C3.32481 16.7128 3.15888 16.723 3.00231 16.6812C2.84574 16.6393 2.70701 16.5478 2.60701 16.4202C1.93722 15.5542 1.60608 14.4737 1.67559 13.3811C1.74509 12.2884 2.21048 11.2586 2.9846 10.4844C5.37569 8.0933 8.6187 6.75 12.0002 6.75C15.3817 6.75 18.6247 8.0933 21.0158 10.4844C21.7899 11.2586 22.2553 12.2884 22.3248 13.3811C22.3943 14.4737 22.0632 15.5542 21.3934 16.4202C21.2934 16.5478 21.1547 16.6393 20.9981 16.6812C20.8415 16.723 20.6756 16.7128 20.5253 16.6522L16.0859 14.8764C15.9711 14.8305 15.8694 14.7568 15.7899 14.6621C15.7104 14.5674 15.6556 14.4544 15.6303 14.3334L15.048 11.5454C15.0224 11.4194 14.9646 11.3022 14.8801 11.2052C14.7957 11.1083 14.6875 11.0349 14.5662 10.9922Z" fill="#061C3D"/>
<path d="M4.5 3.75L19.5 20.25" stroke="#061C3D" stroke-width="1.5" stroke-linecap="round" stroke-linejoin="round"/>
<path d="M10.781 10.6588C10.3112 10.7319 9.8491 10.8475 9.40022 11.004C9.27867 11.0474 9.17052 11.1217 9.0864 11.2196C9.00229 11.3175 8.94511 11.4356 8.92051 11.5623L8.36755 14.3286C8.34309 14.4509 8.2885 14.5653 8.20872 14.6612C8.12893 14.7571 8.02648 14.8316 7.91064 14.8779L3.47509 16.6522C3.32481 16.7128 3.15888 16.723 3.00231 16.6812C2.84574 16.6394 2.70701 16.5478 2.60701 16.4203C1.93722 15.5542 1.60608 14.4737 1.67559 13.3811C1.74509 12.2884 2.21048 11.2586 2.9846 10.4844C4.35411 9.11091 6.02004 8.06939 7.8546 7.43976" stroke="#061C3D" stroke-width="1.5" stroke-linecap="round" stroke-linejoin="round"/>
<path d="M11.2993 6.76915C13.0892 6.66864 14.8802 6.94767 16.5547 7.58795C18.2292 8.22823 19.7494 9.2153 21.0157 10.4844C21.7898 11.2586 22.2552 12.2884 22.3247 13.3811C22.3942 14.4737 22.063 15.5542 21.3932 16.4202C21.2932 16.5478 21.1545 16.6394 20.9979 16.6812C20.8414 16.723 20.6754 16.7128 20.5252 16.6522L20.1456 16.5003" stroke="#061C3D" stroke-width="1.5" stroke-linecap="round" stroke-linejoin="round"/>
</svg>
