<svg width="24" height="24" viewBox="0 0 24 24" fill="none" xmlns="http://www.w3.org/2000/svg">
<path opacity="0.2" d="M12.0005 21C16.9711 21 21.0005 16.9706 21.0005 12C21.0005 7.02944 16.9711 3 12.0005 3C7.02993 3 3.00049 7.02944 3.00049 12C3.00049 16.9706 7.02993 21 12.0005 21Z" fill="#061C3D"/>
<path d="M12.0005 21C16.9711 21 21.0005 16.9706 21.0005 12C21.0005 7.02944 16.9711 3 12.0005 3C7.02993 3 3.00049 7.02944 3.00049 12C3.00049 16.9706 7.02993 21 12.0005 21Z" stroke="#061C3D" stroke-width="1.5" stroke-linecap="round" stroke-linejoin="round"/>
<path d="M12.0005 18C12.6218 18 13.1255 17.4963 13.1255 16.875C13.1255 16.2537 12.6218 15.75 12.0005 15.75C11.3792 15.75 10.8755 16.2537 10.8755 16.875C10.8755 17.4963 11.3792 18 12.0005 18Z" fill="#061C3D"/>
<path d="M12 13.5004V12.7504C12.5192 12.7504 13.0267 12.5964 13.4584 12.308C13.8901 12.0195 14.2265 11.6096 14.4252 11.1299C14.6239 10.6503 14.6758 10.1225 14.5746 9.61326C14.4733 9.10406 14.2233 8.63633 13.8562 8.26921C13.489 7.9021 13.0213 7.65209 12.5121 7.55081C12.0029 7.44952 11.4751 7.5015 10.9955 7.70018C10.5158 7.89886 10.1058 8.23532 9.81739 8.667C9.52895 9.09867 9.375 9.60619 9.375 10.1254" stroke="#061C3D" stroke-width="1.5" stroke-linecap="round" stroke-linejoin="round"/>
</svg>
