<svg width="24" height="24" viewBox="0 0 24 24" fill="none" xmlns="http://www.w3.org/2000/svg">
<path opacity="0.2" d="M7.5 15.75H3C2.80109 15.75 2.61032 15.671 2.46967 15.5303C2.32902 15.3897 2.25 15.1989 2.25 15V9C2.25 8.80109 2.32902 8.61032 2.46967 8.46967C2.61032 8.32902 2.80109 8.25 3 8.25H7.5V15.75Z" fill="#061C3D"/>
<path d="M20.5229 7.22705C21.1497 7.85385 21.6469 8.59796 21.9862 9.41691C22.3254 10.2359 22.5 11.1136 22.5 12C22.5 12.8864 22.3254 13.7642 21.9862 14.5831C21.6469 15.4021 21.1497 16.1462 20.5229 16.773" stroke="#061C3D" stroke-width="1.5" stroke-linecap="round" stroke-linejoin="round"/>
<path d="M7.5 15.75H3C2.80109 15.75 2.61032 15.671 2.46967 15.5303C2.32902 15.3897 2.25 15.1989 2.25 15V9C2.25 8.80109 2.32902 8.61032 2.46967 8.46967C2.61032 8.32902 2.80109 8.25 3 8.25H7.5L14.25 3V21L7.5 15.75Z" stroke="#061C3D" stroke-width="1.5" stroke-linecap="round" stroke-linejoin="round"/>
<path d="M7.49707 8.25V15.75" stroke="#061C3D" stroke-width="1.5" stroke-linecap="round" stroke-linejoin="round"/>
<path d="M17.8711 9.87866C18.1497 10.1572 18.3706 10.488 18.5214 10.8519C18.6722 11.2159 18.7498 11.606 18.7498 12C18.7498 12.3939 18.6722 12.7841 18.5214 13.148C18.3706 13.512 18.1497 13.8427 17.8711 14.1213" stroke="#061C3D" stroke-width="1.5" stroke-linecap="round" stroke-linejoin="round"/>
</svg>
