<svg width="24" height="24" viewBox="0 0 24 24" fill="none" xmlns="http://www.w3.org/2000/svg">
<path opacity="0.2" d="M7.5 15.75H3C2.80109 15.75 2.61032 15.671 2.46967 15.5303C2.32902 15.3897 2.25 15.1989 2.25 15V9C2.25 8.80109 2.32902 8.61032 2.46967 8.46967C2.61032 8.32902 2.80109 8.25 3 8.25H7.5V15.75Z" fill="#061C3D"/>
<path d="M20.521 7.22803C21.7869 8.4939 22.498 10.2108 22.498 12.001C22.498 13.7912 21.7869 15.5081 20.521 16.774" stroke="#061C3D" stroke-width="1.5" stroke-linecap="round" stroke-linejoin="round"/>
<path d="M7.49951 8.25098V15.751" stroke="#061C3D" stroke-width="1.5" stroke-linecap="round" stroke-linejoin="round"/>
<path d="M17.8691 9.87988C18.4317 10.4425 18.7478 11.2056 18.7478 12.0012C18.7478 12.7969 18.4317 13.5599 17.8691 14.1225" stroke="#061C3D" stroke-width="1.5" stroke-linecap="round" stroke-linejoin="round"/>
<path d="M4.5 3.75L19.5 20.25" stroke="#061C3D" stroke-width="1.5" stroke-linecap="round" stroke-linejoin="round"/>
<path d="M14.25 14.4751V21.0012L7.5 15.7512H3C2.80109 15.7512 2.61032 15.6721 2.46967 15.5315C2.32902 15.3908 2.25 15.2001 2.25 15.0012V9.00116C2.25 8.80225 2.32902 8.61148 2.46967 8.47083C2.61032 8.33018 2.80109 8.25116 3 8.25116H7.5L8.13963 7.75366" stroke="#061C3D" stroke-width="1.5" stroke-linecap="round" stroke-linejoin="round"/>
<path d="M10.5146 5.90644L14.25 3.00122V10.0153" stroke="#061C3D" stroke-width="1.5" stroke-linecap="round" stroke-linejoin="round"/>
</svg>
