<svg width="24" height="24" viewBox="0 0 24 24" fill="none" xmlns="http://www.w3.org/2000/svg">
<path opacity="0.2" d="M2.99951 4.5H7.49951V14.25H2.99951C2.8006 14.25 2.60983 14.171 2.46918 14.0303C2.32853 13.8897 2.24951 13.6989 2.24951 13.5V5.25C2.24951 5.05109 2.32853 4.86032 2.46918 4.71967C2.60983 4.57902 2.8006 4.5 2.99951 4.5Z" fill="#061C3D"/>
<path d="M2.99951 4.5H7.49951V14.25H2.99951C2.8006 14.25 2.60983 14.171 2.46918 14.0303C2.32853 13.8897 2.24951 13.6989 2.24951 13.5V5.25C2.24951 5.05109 2.32853 4.86032 2.46918 4.71967C2.60983 4.57902 2.8006 4.5 2.99951 4.5V4.5Z" stroke="#061C3D" stroke-width="1.5" stroke-linecap="round" stroke-linejoin="round"/>
<path d="M7.49951 14.25L11.2495 21.75C11.6435 21.75 12.0336 21.6724 12.3976 21.5216C12.7615 21.3709 13.0923 21.1499 13.3708 20.8713C13.6494 20.5927 13.8704 20.262 14.0212 19.898C14.1719 19.5341 14.2495 19.144 14.2495 18.75V16.5H20.0503C20.263 16.5 20.4733 16.4548 20.6672 16.3673C20.861 16.2798 21.0341 16.1522 21.1749 15.9927C21.3156 15.8333 21.4209 15.6457 21.4836 15.4425C21.5463 15.2392 21.5651 15.025 21.5388 14.8139L20.4138 5.81395C20.3684 5.45117 20.1921 5.11744 19.918 4.87548C19.644 4.63353 19.2909 4.5 18.9253 4.5H7.49951" stroke="#061C3D" stroke-width="1.5" stroke-linecap="round" stroke-linejoin="round"/>
</svg>
