<svg width="24" height="24" viewBox="0 0 24 24" fill="none" xmlns="http://www.w3.org/2000/svg">
<path opacity="0.2" d="M8.63037 16.4899C8.96219 17.4319 9.4988 18.2886 10.2015 18.9983C10.9043 19.7079 11.7557 20.2529 12.6944 20.594C13.6331 20.935 14.6357 21.0637 15.6301 20.9706C16.6245 20.8775 17.5859 20.5651 18.445 20.0558L18.445 20.0557L20.7763 20.7218C20.8727 20.7494 20.9748 20.7506 21.0719 20.7255C21.169 20.7003 21.2576 20.6496 21.3286 20.5787C21.3995 20.5078 21.4502 20.4192 21.4753 20.3221C21.5005 20.225 21.4992 20.1229 21.4717 20.0264L20.8056 17.6951L20.8056 17.6952C21.3975 16.697 21.7221 15.5632 21.7481 14.4032C21.7742 13.2431 21.5008 12.0958 20.9544 11.0721C20.408 10.0485 19.607 9.18289 18.6286 8.55892C17.6503 7.93495 16.5276 7.57366 15.369 7.5099L15.3692 7.50983C15.7262 8.52782 15.8342 9.61651 15.6842 10.6848C15.5341 11.7531 15.1304 12.7699 14.5067 13.6501C13.8831 14.5304 13.0577 15.2485 12.0996 15.7443C11.1415 16.2401 10.0786 16.4992 8.99984 16.5C8.87588 16.5 8.75272 16.4967 8.63037 16.49V16.4899Z" fill="#061C3D"/>
<path d="M3.19421 13.1952C2.35557 11.7815 2.06187 10.1102 2.36826 8.49521C2.67466 6.88024 3.56007 5.43266 4.85823 4.42431C6.15639 3.41596 7.77801 2.91619 9.41858 3.01886C11.0591 3.12152 12.6058 3.81955 13.7681 4.98187C14.9305 6.1442 15.6285 7.69086 15.7312 9.33143C15.8338 10.972 15.3341 12.5936 14.3257 13.8918C13.3174 15.19 11.8698 16.0754 10.2549 16.3818C8.63989 16.6882 6.96862 16.3945 5.55486 15.5558L5.55488 15.5558L3.22356 16.2219C3.1271 16.2494 3.02504 16.2507 2.92793 16.2255C2.83082 16.2004 2.74221 16.1497 2.67128 16.0788C2.60035 16.0078 2.54967 15.9192 2.52451 15.8221C2.49935 15.725 2.50061 15.6229 2.52817 15.5265L3.19426 13.1952L3.19421 13.1952Z" stroke="#061C3D" stroke-width="1.5" stroke-linecap="round" stroke-linejoin="round"/>
<path d="M8.63037 16.4899C8.96219 17.4319 9.4988 18.2886 10.2015 18.9983C10.9043 19.708 11.7557 20.253 12.6944 20.594C13.6331 20.9351 14.6357 21.0637 15.6301 20.9706C16.6245 20.8776 17.5859 20.5652 18.445 20.0558L18.445 20.0558L20.7763 20.7219C20.8727 20.7494 20.9748 20.7507 21.0719 20.7255C21.169 20.7004 21.2576 20.6497 21.3286 20.5788C21.3995 20.5078 21.4502 20.4192 21.4753 20.3221C21.5005 20.225 21.4992 20.1229 21.4717 20.0265L20.8056 17.6952L20.8056 17.6952C21.3975 16.6971 21.7221 15.5633 21.7481 14.4032C21.7742 13.2431 21.5008 12.0959 20.9544 11.0722C20.408 10.0485 19.607 9.18294 18.6286 8.55897C17.6503 7.935 16.5276 7.57371 15.369 7.50995" stroke="#061C3D" stroke-width="1.5" stroke-linecap="round" stroke-linejoin="round"/>
</svg>
