<svg data-name="Layer 1" viewBox="0 0 512 512" xmlns="http://www.w3.org/2000/svg"><defs><linearGradient gradientUnits="userSpaceOnUse" id="a" x1=".952" x2="497.137" y1="511.048" y2="14.862"><stop offset="0" stop-color="#314e8d" class="stop-color-0079ff"></stop><stop offset="1" stop-color="#a1bdff" class="stop-color-00c2ff"></stop></linearGradient></defs><path d="M256 0C114.615 0 0 114.615 0 256s114.615 256 256 256 256-114.615 256-256S397.385 0 256 0Zm65.382 328.892a9.268 9.268 0 0 1-9.267 9.268h-156.97a45.812 45.812 0 0 1-45.812-45.812v-109.24a9.268 9.268 0 0 1 9.268-9.268h156.97a45.811 45.811 0 0 1 45.811 45.811Zm81.285 3.235a4.219 4.219 0 0 1-6.659 3.442l-66.656-47.233v-64.673l66.656-47.233a4.22 4.22 0 0 1 6.659 3.443Z" fill="url(#a)" class="fillurl(-a)"></path></svg>