<svg width="24" height="24" viewBox="0 0 24 24" fill="none" xmlns="http://www.w3.org/2000/svg">
<path opacity="0.2" d="M12 2.25H12C12.9946 2.25 13.9484 2.64509 14.6517 3.34835C15.3549 4.05161 15.75 5.00544 15.75 6V12C15.75 12.9946 15.3549 13.9484 14.6517 14.6517C13.9484 15.3549 12.9946 15.75 12 15.75H12C11.5075 15.75 11.0199 15.653 10.5649 15.4645C10.11 15.2761 9.69657 14.9999 9.34835 14.6517C9.00013 14.3034 8.72391 13.89 8.53545 13.4351C8.347 12.9801 8.25 12.4925 8.25 12V5.99999C8.25 5.00543 8.64509 4.05161 9.34835 3.34835C10.0516 2.64509 11.0054 2.25 12 2.25Z" fill="current"/>
<path d="M16.5398 16.9951C15.6194 17.8316 14.4858 18.3976 13.264 18.6305C12.0422 18.8635 10.7799 18.7544 9.61623 18.3152C8.45257 17.8761 7.43285 17.124 6.66962 16.1419C5.90638 15.1599 5.4293 13.9861 5.29102 12.75" stroke="current" stroke-width="current" stroke-linecap="round" stroke-linejoin="round"/>
<path d="M14.5221 14.7752C13.8326 15.4036 12.9329 15.7514 12 15.75H12C11.0054 15.75 10.0516 15.355 9.34835 14.6517C8.64509 13.9484 8.25 12.9946 8.25 12V7.87524" stroke="current" stroke-width="current" stroke-linecap="round" stroke-linejoin="round"/>
<path d="M12 18.75V21.75" stroke="current" stroke-width="current" stroke-linecap="round" stroke-linejoin="round"/>
<path d="M4.5 3.75L19.5 20.25" stroke="current" stroke-width="current" stroke-linecap="round" stroke-linejoin="round"/>
<path d="M8.80859 4.02978C9.14445 3.48544 9.61403 3.03612 10.1726 2.72458C10.7313 2.41305 11.3603 2.24967 11.9999 2.25H11.9999C12.4924 2.25 12.98 2.347 13.435 2.53545C13.89 2.72391 14.3034 3.00013 14.6516 3.34835C14.9998 3.69657 15.276 4.10996 15.4645 4.56493C15.6529 5.0199 15.7499 5.50754 15.7499 5.99999V11.6652" stroke="current" stroke-width="current" stroke-linecap="round" stroke-linejoin="round"/>
<path d="M18.7088 12.75C18.6442 13.3352 18.503 13.9094 18.2886 14.4577" stroke="current" stroke-width="current" stroke-linecap="round" stroke-linejoin="round"/>
</svg>
