<svg width="24" height="24" viewBox="0 0 24 24" fill="none" xmlns="http://www.w3.org/2000/svg">
<path opacity="0.2" d="M11.2505 5.25037L5.6558 7.34839C5.53256 7.39459 5.42365 7.47241 5.34002 7.57404C5.25639 7.67566 5.20097 7.7975 5.17933 7.92732L3.00049 21.0004L16.0735 18.8215C16.2034 18.7999 16.3252 18.7445 16.4268 18.6608C16.5284 18.5772 16.6063 18.4683 16.6525 18.3451L18.7505 12.7504L11.2505 5.25037ZM10.8749 15C10.5041 15 10.1416 14.8901 9.83325 14.6841C9.52491 14.478 9.28458 14.1852 9.14267 13.8426C9.00075 13.5 8.96362 13.123 9.03597 12.7593C9.10832 12.3955 9.28689 12.0614 9.54912 11.7992C9.81134 11.537 10.1454 11.3584 10.5091 11.2861C10.8729 11.2137 11.2499 11.2509 11.5925 11.3928C11.9351 11.5347 12.2279 11.775 12.4339 12.0834C12.64 12.3917 12.7499 12.7542 12.7499 13.125C12.7499 13.3713 12.7014 13.6151 12.6072 13.8426C12.513 14.0701 12.3749 14.2768 12.2008 14.4509C12.0267 14.625 11.82 14.7631 11.5925 14.8573C11.365 14.9515 11.1212 15 10.8749 15Z" fill="#061C3D"/>
<path d="M10.875 15C11.9105 15 12.75 14.1605 12.75 13.125C12.75 12.0895 11.9105 11.25 10.875 11.25C9.83947 11.25 9 12.0895 9 13.125C9 14.1605 9.83947 15 10.875 15Z" stroke="#061C3D" stroke-width="1.5" stroke-linecap="round" stroke-linejoin="round"/>
<path d="M3.00049 21.0003L9.54911 14.4508" stroke="#061C3D" stroke-width="1.5" stroke-linecap="round" stroke-linejoin="round"/>
<path d="M3.00049 21.0004L16.0735 18.8215C16.2033 18.7999 16.3252 18.7445 16.4268 18.6608C16.5284 18.5772 16.6063 18.4683 16.6525 18.3451L18.7505 12.7504L11.2505 5.25037L5.65578 7.34839C5.53255 7.3946 5.42365 7.47242 5.34002 7.57405C5.25638 7.67567 5.20097 7.79751 5.17933 7.92733L3.00049 21.0004Z" stroke="#061C3D" stroke-width="1.5" stroke-linecap="round" stroke-linejoin="round"/>
<path d="M18.7505 12.7504L21.2202 10.2807C21.2898 10.2111 21.345 10.1284 21.3827 10.0374C21.4204 9.94639 21.4398 9.84887 21.4398 9.75037C21.4398 9.65188 21.4204 9.55436 21.3827 9.46336C21.345 9.37237 21.2898 9.28969 21.2202 9.22004L14.7808 2.7807C14.6402 2.64005 14.4494 2.56104 14.2505 2.56104C14.0516 2.56104 13.8608 2.64005 13.7202 2.7807L11.2505 5.25038" stroke="#061C3D" stroke-width="1.5" stroke-linecap="round" stroke-linejoin="round"/>
</svg>
