<svg width="24" height="24" viewBox="0 0 24 24" fill="none" xmlns="http://www.w3.org/2000/svg">
<path opacity="0.2" d="M20.25 5.25H3.75C3.65151 5.25 3.55398 5.2694 3.46299 5.30709C3.37199 5.34478 3.28931 5.40002 3.21967 5.46967C3.15002 5.53931 3.09478 5.62199 3.05709 5.71299C3.0194 5.80398 3 5.90151 3 6V18C3 18.0985 3.0194 18.196 3.05709 18.287C3.09478 18.378 3.15002 18.4607 3.21967 18.5303C3.28931 18.6 3.37199 18.6552 3.46299 18.6929C3.55398 18.7306 3.65151 18.75 3.75 18.75H12.75V12.75C12.75 12.6515 12.7694 12.554 12.8071 12.463C12.8448 12.372 12.9 12.2893 12.9697 12.2197C13.0393 12.15 13.122 12.0948 13.213 12.0571C13.304 12.0194 13.4015 12 13.5 12H21V6C21 5.90151 20.9806 5.80398 20.9429 5.71299C20.9052 5.62199 20.85 5.53931 20.7803 5.46967C20.7107 5.40002 20.628 5.34478 20.537 5.30709C20.446 5.2694 20.3485 5.25 20.25 5.25Z" fill="current"/>
<path d="M20.25 5.25H3.75C3.33579 5.25 3 5.58579 3 6V18C3 18.4142 3.33579 18.75 3.75 18.75H20.25C20.6642 18.75 21 18.4142 21 18V6C21 5.58579 20.6642 5.25 20.25 5.25Z" stroke="current" stroke-width="current" stroke-linecap="round" stroke-linejoin="round"/>
<path d="M12.75 18.75V12.75C12.75 12.5511 12.829 12.3603 12.9697 12.2197C13.1103 12.079 13.3011 12 13.5 12H21" stroke="current" stroke-width="current" stroke-linecap="round" stroke-linejoin="round"/>
</svg>
