<svg data-name="Layer 1" viewBox="0 0 64 64" xmlns="http://www.w3.org/2000/svg"><path d="M3.218 18.771v37.006A8.221 8.221 0 0 0 11.441 64h41.118a8.221 8.221 0 0 0 8.223-8.223V18.771Z" fill="#fffdf5" class="fill-f3f0f3"></path><path d="M58.726 55.639H17.609a8.221 8.221 0 0 1-8.223-8.224V20.827H3.218v34.95A8.221 8.221 0 0 0 11.441 64h41.118a8.221 8.221 0 0 0 8.223-8.223v-.408a8.2 8.2 0 0 1-2.056.27Z" fill="#f2eee1" class="fill-ece4ed"></path><path d="M60.782 16.715v4.112H3.218v-4.112a8.221 8.221 0 0 1 8.223-8.223h41.118a8.221 8.221 0 0 1 8.223 8.223Z" fill="#f5c82e" class="fill-c397ff"></path><path d="M13.5 16.577a4.111 4.111 0 0 1-4.111-4.111 8.187 8.187 0 0 1 .98-3.9 8.217 8.217 0 0 0-7.148 8.145v4.112h57.561v-4.108l-.138-.138Z" fill="#d6b12b" class="fill-b189e8"></path><path d="M49.475 8.492v3.6a3.6 3.6 0 0 1-7.2 0V3.866a3.6 3.6 0 0 1 3.6-3.6 3.614 3.614 0 0 1 3.6 3.6Z" fill="#fffdf5" class="fill-f3f0f3"></path><path d="m47.419 30.078-.031 24.671a1.99 1.99 0 1 1-3.978.02v-.02l.021-19.223a1 1 0 0 0-1.512-.884l-1.757 1.09a1.953 1.953 0 0 1-2.735-.7 2.09 2.09 0 0 1-.287-1.069 2.065 2.065 0 0 1 .966-1.758l6.294-3.884a1.993 1.993 0 0 1 3.019 1.757ZM30.242 42.414a8.223 8.223 0 1 1-13.661 6.167 2.056 2.056 0 1 1 4.112 0 4.2 4.2 0 0 0 3.474 4.06 4.115 4.115 0 0 0 4.667-4.892 4.232 4.232 0 0 0-4.029-3.28 2.056 2.056 0 1 1 0-4.111 4.108 4.108 0 0 0 4.111-4.1 4.592 4.592 0 0 0-.113-.976 4.112 4.112 0 0 0-8.11.966 2.11 2.11 0 0 1-2.056 2.052 2.083 2.083 0 0 1-2.056-2.056 8.4 8.4 0 0 1 7.679-8.2 8.221 8.221 0 0 1 5.982 14.371Z" fill="#f5c82e" class="fill-c397ff"></path><path d="M20.693 8.492v3.6a3.6 3.6 0 0 1-7.2 0V3.866a3.614 3.614 0 0 1 3.6-3.6 3.608 3.608 0 0 1 3.6 3.6Z" fill="#fffdf5" class="fill-f3f0f3"></path></svg>