<?xml version="1.0" ?><svg id="Layer_1" style="enable-background:new 0 0 120 120;" version="1.1" viewBox="0 0 120 120" xml:space="preserve" xmlns="http://www.w3.org/2000/svg" xmlns:xlink="http://www.w3.org/1999/xlink"><style type="text/css">
	.st0{fill:#F4F4F4;}
	.st1{fill:#314E8D;}
	.st2{fill:#1b3160;}
	.st3{fill:#FCF0DE;}
	.st4{fill:#83E598;}
	.st5{fill:#FFF2F2;}
</style><g><path class="st0" d="M24.9,100.7H95c3.9,0,7-3.3,7-7.3V31.1c0-4.1-3.2-7.3-7-7.3H24.9c-3.9,0-7,3.3-7,7.3v62.2   C17.9,97.4,21,100.7,24.9,100.7z"/><path class="st1" d="M102.1,30.8v15.1H17.9V30.8c0-3.9,3.1-7,6.7-7h70.7C99.1,23.7,102.1,26.9,102.1,30.8z"/><g><path class="st2" d="M38.9,31.2c-2,0-3.6,1.6-3.6,3.6s1.6,3.6,3.6,3.6s3.6-1.6,3.6-3.6S40.9,31.2,38.9,31.2z"/><path class="st2" d="M81.1,31.2c-2,0-3.6,1.6-3.6,3.6s1.6,3.6,3.6,3.6c2,0,3.6-1.6,3.6-3.6S83.1,31.2,81.1,31.2z"/></g><g><path class="st3" d="M39.9,19.3h-2c-0.6,0-1.1,0.5-1.1,1.1v13.9c0,0.6,0.5,1.1,1.1,1.1h2c0.6,0,1.1-0.5,1.1-1.1V20.5    C41.1,19.8,40.5,19.3,39.9,19.3z"/><path class="st3" d="M82.1,19.3h-2c-0.6,0-1.1,0.5-1.1,1.1v13.9c0,0.6,0.5,1.1,1.1,1.1h2c0.6,0,1.1-0.5,1.1-1.1V20.5    C83.2,19.8,82.7,19.3,82.1,19.3z"/></g><circle class="st4" cx="60" cy="74.7" r="16.4"/><path class="st5" d="M58.1,82.1L58.1,82.1c-0.8,0-1.3-0.3-1.8-0.8l-6.6-7.4c-0.8-1-0.8-2.5,0.2-3.3c1-0.8,2.5-0.8,3.3,0.2l5,5.6   l8.6-8.3c0.9-0.9,2.4-0.8,3.3,0.1s0.8,2.4-0.1,3.3L59.8,81.5C59.3,81.9,58.8,82.1,58.1,82.1z"/></g></svg>