<svg width="24" height="24" viewBox="0 0 24 24" fill="none" xmlns="http://www.w3.org/2000/svg">
<path opacity="0.2" d="M19.5 6.00073H16.4995L14.9995 3.75073H8.99945L7.49945 6.00073H4.5C4.10218 6.00073 3.72064 6.15877 3.43934 6.44007C3.15804 6.72138 3 7.10291 3 7.50073V18.0007C3 18.3986 3.15804 18.7801 3.43934 19.0614C3.72064 19.3427 4.10218 19.5007 4.5 19.5007H19.5C19.8978 19.5007 20.2794 19.3427 20.5607 19.0614C20.842 18.7801 21 18.3986 21 18.0007V7.50073C21 7.10291 20.842 6.72138 20.5607 6.44007C20.2794 6.15877 19.8978 6.00073 19.5 6.00073ZM12 15.7507C11.3325 15.7507 10.68 15.5528 10.125 15.1819C9.56993 14.8111 9.13735 14.284 8.88191 13.6673C8.62646 13.0506 8.55962 12.372 8.68985 11.7173C8.82007 11.0626 9.14151 10.4612 9.61351 9.98925C10.0855 9.51725 10.6869 9.19581 11.3416 9.06558C11.9963 8.93536 12.6749 9.00219 13.2916 9.25764C13.9083 9.51308 14.4354 9.94567 14.8062 10.5007C15.1771 11.0557 15.375 11.7082 15.375 12.3757C15.375 13.2708 15.0194 14.1293 14.3865 14.7622C13.7535 15.3952 12.8951 15.7507 12 15.7507Z" fill="#061C3D"/>
<path d="M3.13623 2.25L20.8635 21.75" stroke="#061C3D" stroke-width="1.5" stroke-linecap="round" stroke-linejoin="round"/>
<path d="M8.81104 4.03246L8.99934 3.75H14.9993L16.4993 6H19.4999C19.8977 6 20.2792 6.15804 20.5606 6.43934C20.8419 6.72064 20.9999 7.10218 20.9999 7.5V17.4402" stroke="#061C3D" stroke-width="1.5" stroke-linecap="round" stroke-linejoin="round"/>
<path d="M18.8182 19.5H4.5C4.10218 19.5 3.72064 19.342 3.43934 19.0607C3.15804 18.7794 3 18.3978 3 18V7.5C3 7.10218 3.15804 6.72064 3.43934 6.43934C3.72064 6.15804 4.10218 6 4.5 6H6.54545" stroke="#061C3D" stroke-width="1.5" stroke-linecap="round" stroke-linejoin="round"/>
<path d="M14.4506 14.6956C14.1312 15.0328 13.7457 15.3005 13.3181 15.4819C12.8905 15.6633 12.4301 15.7544 11.9656 15.7497C11.5012 15.745 11.0427 15.6444 10.6189 15.4543C10.1951 15.2643 9.81515 14.9888 9.50272 14.6451C9.19029 14.3014 8.95215 13.897 8.80322 13.457C8.65429 13.0171 8.59776 12.5512 8.63718 12.0884C8.67659 11.6256 8.81111 11.1759 9.0323 10.7675C9.25349 10.3591 9.55659 10.0007 9.92264 9.71484" stroke="#061C3D" stroke-width="1.5" stroke-linecap="round" stroke-linejoin="round"/>
</svg>
