<svg width="41" height="40" viewBox="0 0 41 40" fill="none" xmlns="http://www.w3.org/2000/svg">
<path d="M30.9197 9.51589C30.2607 8.86589 29.1963 8.86589 28.5374 9.51589L20.2753 17.6492L12.0132 9.49922C11.3543 8.84922 10.2899 8.84922 9.63092 9.49922C8.97198 10.1492 8.97198 11.1992 9.63092 11.8492L17.893 19.9992L9.63092 28.1492C8.97198 28.7992 8.97198 29.8492 9.63092 30.4992C10.2899 31.1492 11.3543 31.1492 12.0132 30.4992L20.2753 22.3492L28.5374 30.4992C29.1963 31.1492 30.2607 31.1492 30.9197 30.4992C31.5786 29.8492 31.5786 28.7992 30.9197 28.1492L22.6576 19.9992L30.9197 11.8492C31.5617 11.2159 31.5617 10.1492 30.9197 9.51589Z" fill="black" fill-opacity="0.5"/>
</svg>
