<svg width="124" height="124" viewBox="0 0 124 124"  xmlns="http://www.w3.org/2000/svg">
<path d="M94.5974 29.8021C92.5964 27.8011 89.364 27.8011 87.363 29.8021L62.2737 54.8401L37.1843 29.7507C35.1833 27.7498 31.951 27.7498 29.95 29.7507C27.949 31.7517 27.949 34.9841 29.95 36.9851L55.0393 62.0744L29.95 87.1638C27.949 89.1648 27.949 92.3972 29.95 94.3981C31.951 96.3991 35.1833 96.3991 37.1843 94.3981L62.2737 69.3088L87.363 94.3981C89.364 96.3991 92.5964 96.3991 94.5974 94.3981C96.5984 92.3972 96.5984 89.1648 94.5974 87.1638L69.508 62.0744L94.5974 36.9851C96.547 35.0354 96.547 31.7517 94.5974 29.8021Z" />
</svg>
