<svg width="24" height="24" viewBox="0 0 24 24" fill="none" xmlns="http://www.w3.org/2000/svg">
<path opacity="0.2" d="M4.23055 18.3767C4.25394 18.4752 4.29702 18.5681 4.35721 18.6496C4.41741 18.7311 4.49347 18.7996 4.58082 18.8509C4.66817 18.9023 4.76501 18.9354 4.8655 18.9483C4.96599 18.9613 5.06806 18.9538 5.16558 18.9262C9.63644 17.6918 14.3582 17.6914 18.8293 18.925C18.9267 18.9525 19.0288 18.96 19.1292 18.947C19.2297 18.9341 19.3265 18.9009 19.4138 18.8496C19.5011 18.7983 19.5772 18.7299 19.6374 18.6484C19.6976 18.567 19.7407 18.4742 19.7641 18.3756L22.1536 8.22092C22.1856 8.08498 22.179 7.9428 22.1346 7.81041C22.0901 7.67802 22.0096 7.56066 21.9021 7.47157C21.7945 7.38247 21.6642 7.32518 21.5259 7.30613C21.3875 7.28708 21.2466 7.30704 21.119 7.36376L16.3767 9.47142C16.2055 9.54753 16.012 9.55677 15.8343 9.49734C15.6566 9.43791 15.5075 9.3141 15.4165 9.1503L12.6554 4.1802C12.5904 4.06328 12.4954 3.96586 12.3801 3.89803C12.2648 3.8302 12.1335 3.79443 11.9997 3.79443C11.866 3.79443 11.7347 3.8302 11.6194 3.89803C11.5041 3.96586 11.4091 4.06328 11.3441 4.1802L8.58297 9.1503C8.49196 9.3141 8.34294 9.43791 8.16522 9.49734C7.98751 9.55677 7.79399 9.54753 7.62275 9.47142L2.8798 7.36345C2.7522 7.30674 2.61131 7.28677 2.47299 7.3058C2.33466 7.32483 2.20439 7.3821 2.09685 7.47115C1.98931 7.56021 1.90876 7.67751 1.86427 7.80987C1.81979 7.94222 1.81314 8.08437 1.84506 8.2203L4.23055 18.3767Z" fill="#061C3D"/>
<path d="M4.23055 18.3767C4.25394 18.4752 4.29702 18.5681 4.35721 18.6496C4.41741 18.7311 4.49347 18.7996 4.58082 18.8509C4.66817 18.9023 4.76501 18.9354 4.8655 18.9483C4.96599 18.9613 5.06806 18.9538 5.16558 18.9262C9.63644 17.6918 14.3582 17.6914 18.8293 18.925C18.9267 18.9525 19.0288 18.96 19.1292 18.947C19.2297 18.9341 19.3265 18.9009 19.4138 18.8496C19.5011 18.7983 19.5772 18.7299 19.6374 18.6484C19.6976 18.567 19.7407 18.4742 19.7641 18.3756L22.1536 8.22092C22.1856 8.08498 22.179 7.9428 22.1346 7.81041C22.0901 7.67802 22.0096 7.56066 21.9021 7.47157C21.7945 7.38247 21.6642 7.32518 21.5259 7.30613C21.3875 7.28708 21.2466 7.30704 21.119 7.36376L16.3767 9.47142C16.2055 9.54753 16.012 9.55677 15.8343 9.49734C15.6566 9.43791 15.5075 9.3141 15.4165 9.1503L12.6554 4.1802C12.5904 4.06328 12.4954 3.96586 12.3801 3.89803C12.2648 3.8302 12.1335 3.79443 11.9997 3.79443C11.866 3.79443 11.7347 3.8302 11.6194 3.89803C11.5041 3.96586 11.4091 4.06328 11.3441 4.1802L8.58297 9.1503C8.49196 9.3141 8.34294 9.43791 8.16522 9.49734C7.98751 9.55677 7.79399 9.54753 7.62275 9.47142L2.8798 7.36345C2.7522 7.30674 2.61131 7.28677 2.47299 7.3058C2.33466 7.32483 2.20439 7.3821 2.09685 7.47115C1.98931 7.56021 1.90876 7.67751 1.86427 7.80987C1.81979 7.94222 1.81314 8.08437 1.84506 8.2203L4.23055 18.3767Z" stroke="#061C3D" stroke-width="1.5" stroke-linecap="round" stroke-linejoin="round"/>
<path d="M9 15.1574C10.9945 14.9475 13.0055 14.9475 15 15.1574" stroke="#061C3D" stroke-width="1.5" stroke-linecap="round" stroke-linejoin="round"/>
</svg>
