<svg width="24" height="24" viewBox="0 0 24 24" fill="none" xmlns="http://www.w3.org/2000/svg">
<path d="M2.25 21H21.75" stroke="#061C3D" stroke-width="1.5" stroke-linecap="round" stroke-linejoin="round"/>
<path d="M5.25 21V3.75C5.25 3.55109 5.32902 3.36032 5.46967 3.21967C5.61032 3.07902 5.80109 3 6 3H18C18.1989 3 18.3897 3.07902 18.5303 3.21967C18.671 3.36032 18.75 3.55109 18.75 3.75V21" stroke="#061C3D" stroke-width="1.5" stroke-linecap="round" stroke-linejoin="round"/>
<path d="M14.625 13.125C15.2463 13.125 15.75 12.6213 15.75 12C15.75 11.3787 15.2463 10.875 14.625 10.875C14.0037 10.875 13.5 11.3787 13.5 12C13.5 12.6213 14.0037 13.125 14.625 13.125Z" fill="#061C3D"/>
</svg>
