<svg width="24" height="24" viewBox="0 0 24 24" fill="none" xmlns="http://www.w3.org/2000/svg">
<path opacity="0.2" d="M3.75 16.5V4.5C3.75 4.30109 3.82902 4.11032 3.96967 3.96967C4.11032 3.82902 4.30109 3.75 4.5 3.75H19.5C19.6989 3.75 19.8897 3.82902 20.0303 3.96967C20.171 4.11032 20.25 4.30109 20.25 4.5V15L20.25 15L16.2803 11.0303C16.1397 10.8897 15.9489 10.8107 15.75 10.8107C15.5511 10.8107 15.3603 10.8897 15.2197 11.0303L11.0303 15.2197C10.8897 15.3603 10.6989 15.4393 10.5 15.4393C10.3011 15.4393 10.1103 15.3603 9.96967 15.2197L8.03033 13.2803C7.88967 13.1397 7.69891 13.0607 7.5 13.0607C7.30108 13.0607 7.11032 13.1397 6.96967 13.2803L3.75 16.5Z" fill="#061C3D"/>
<path d="M19.5 3.75H4.5C4.08579 3.75 3.75 4.08579 3.75 4.5V19.5C3.75 19.9142 4.08579 20.25 4.5 20.25H19.5C19.9142 20.25 20.25 19.9142 20.25 19.5V4.5C20.25 4.08579 19.9142 3.75 19.5 3.75Z" stroke="#061C3D" stroke-width="1.5" stroke-linecap="round" stroke-linejoin="round"/>
<path d="M20.25 14.9999L16.2803 11.0302C16.1397 10.8896 15.9489 10.8105 15.75 10.8105C15.5511 10.8105 15.3603 10.8896 15.2197 11.0302L11.0303 15.2196C10.8897 15.3602 10.6989 15.4392 10.5 15.4392C10.3011 15.4392 10.1103 15.3602 9.96967 15.2196L8.03033 13.2802C7.88967 13.1396 7.69891 13.0605 7.5 13.0605C7.30108 13.0605 7.11032 13.1396 6.96967 13.2802L3.75 16.4999" stroke="#061C3D" stroke-width="1.5" stroke-linecap="round" stroke-linejoin="round"/>
<path d="M9.375 9.75C9.99632 9.75 10.5 9.24632 10.5 8.625C10.5 8.00368 9.99632 7.5 9.375 7.5C8.75368 7.5 8.25 8.00368 8.25 8.625C8.25 9.24632 8.75368 9.75 9.375 9.75Z" fill="#061C3D"/>
</svg>
