<svg width="24" height="24" viewBox="0 0 24 24" fill="none" xmlns="http://www.w3.org/2000/svg">
<path opacity="0.2" d="M8.73482 11.5156C8.15667 10.0735 8.09416 8.47605 8.55787 6.9932C9.02157 5.51034 9.98305 4.23307 11.2798 3.37727C12.5765 2.52148 14.129 2.13967 15.6747 2.29636C17.2205 2.45306 18.6647 3.13865 19.7633 4.23726C20.8619 5.33588 21.5475 6.78012 21.7042 8.32586C21.8609 9.87161 21.4791 11.4241 20.6233 12.7208C19.7675 14.0175 18.4902 14.979 17.0073 15.4427C15.5245 15.9064 13.927 15.8439 12.4849 15.2657L12.485 15.2656L11.2505 16.5001H9.00049V18.7501H6.75049V21.0001H3.00049V17.2501L8.73499 11.5156L8.73482 11.5156Z" fill="#061C3D"/>
<path d="M8.73482 11.5156C8.15667 10.0735 8.09416 8.47605 8.55787 6.9932C9.02157 5.51034 9.98305 4.23307 11.2798 3.37727C12.5765 2.52148 14.129 2.13967 15.6747 2.29636C17.2205 2.45306 18.6647 3.13865 19.7633 4.23726C20.8619 5.33588 21.5475 6.78012 21.7042 8.32586C21.8609 9.87161 21.4791 11.4241 20.6233 12.7208C19.7675 14.0175 18.4902 14.979 17.0073 15.4427C15.5245 15.9064 13.927 15.8439 12.4849 15.2657L12.485 15.2656L11.2505 16.5001H9.00049V18.7501H6.75049V21.0001H3.00049V17.2501L8.73499 11.5156L8.73482 11.5156Z" stroke="#061C3D" stroke-width="1.5" stroke-linecap="round" stroke-linejoin="round"/>
<path opacity="0.5" d="M16.875 7.5C17.0821 7.5 17.25 7.33211 17.25 7.125C17.25 6.91789 17.0821 6.75 16.875 6.75C16.6679 6.75 16.5 6.91789 16.5 7.125C16.5 7.33211 16.6679 7.5 16.875 7.5Z" stroke="#061C3D" stroke-width="1.5" stroke-linecap="round" stroke-linejoin="round"/>
<path d="M16.875 8.25C17.4963 8.25 18 7.74632 18 7.125C18 6.50368 17.4963 6 16.875 6C16.2537 6 15.75 6.50368 15.75 7.125C15.75 7.74632 16.2537 8.25 16.875 8.25Z" fill="#061C3D"/>
</svg>
