<svg width="24" height="24" viewBox="0 0 24 24" fill="none" xmlns="http://www.w3.org/2000/svg">
<path opacity="0.2" d="M14.5662 9.49224C12.8915 8.9177 11.0723 8.92184 9.40022 9.50401C9.27867 9.5474 9.17052 9.62169 9.0864 9.71957C9.00229 9.81745 8.94512 9.93555 8.92051 10.0622L8.36755 12.8286C8.34309 12.9509 8.2885 13.0652 8.20872 13.1612C8.12894 13.2571 8.02648 13.3316 7.91064 13.3779L3.47509 15.1522C3.32481 15.2128 3.15888 15.223 3.00231 15.1812C2.84574 15.1393 2.70701 15.0478 2.60701 14.9202C1.93722 14.0542 1.60608 12.9737 1.67559 11.8811C1.74509 10.7884 2.21048 9.75859 2.9846 8.98439C5.37569 6.5933 8.6187 5.25 12.0002 5.25C15.3817 5.25 18.6247 6.5933 21.0158 8.98439C21.7899 9.75859 22.2553 10.7884 22.3248 11.8811C22.3943 12.9737 22.0632 14.0542 21.3934 14.9202C21.2934 15.0478 21.1547 15.1393 20.9981 15.1812C20.8415 15.223 20.6756 15.2128 20.5253 15.1522L16.0859 13.3764C15.9711 13.3305 15.8694 13.2568 15.7899 13.1621C15.7104 13.0674 15.6556 12.9544 15.6303 12.8334L15.048 10.0454C15.0224 9.9194 14.9646 9.8022 14.8801 9.70525C14.7957 9.60829 14.6875 9.5349 14.5662 9.49224Z" fill="#061C3D"/>
<path d="M14.5662 9.49224C12.8915 8.9177 11.0723 8.92184 9.40022 9.50401C9.27867 9.5474 9.17052 9.62169 9.0864 9.71957C9.00229 9.81745 8.94512 9.93555 8.92051 10.0622L8.36755 12.8286C8.34309 12.9509 8.2885 13.0652 8.20872 13.1612C8.12894 13.2571 8.02648 13.3316 7.91064 13.3779L3.47509 15.1522C3.32481 15.2128 3.15888 15.223 3.00231 15.1812C2.84574 15.1394 2.70701 15.0478 2.60701 14.9202C1.93722 14.0542 1.60608 12.9737 1.67559 11.8811C1.74509 10.7884 2.21048 9.75859 2.9846 8.98439C5.37569 6.5933 8.6187 5.25 12.0002 5.25C15.3817 5.25 18.6247 6.5933 21.0158 8.98439C21.7899 9.75859 22.2553 10.7884 22.3248 11.8811C22.3943 12.9737 22.0632 14.0542 21.3934 14.9202C21.2934 15.0478 21.1547 15.1394 20.9981 15.1812C20.8415 15.223 20.6756 15.2128 20.5253 15.1522L16.0859 13.3764C15.9711 13.3305 15.8694 13.2568 15.7899 13.1621C15.7104 13.0674 15.6556 12.9544 15.6303 12.8334L15.048 10.0454C15.0224 9.9194 14.9646 9.8022 14.8801 9.70525C14.7957 9.60829 14.6875 9.5349 14.5662 9.49224Z" stroke="#061C3D" stroke-width="1.5" stroke-linecap="round" stroke-linejoin="round"/>
<path d="M3.75 18.75H20.25" stroke="#061C3D" stroke-width="1.5" stroke-linecap="round" stroke-linejoin="round"/>
</svg>
